<svg width="613" height="618" viewBox="0 0 613 618" fill="none" xmlns="http://www.w3.org/2000/svg">
<path d="M248.099 416.537L418.012 433.905L189.211 576.863L248.099 416.537Z" fill="#00AAFF"/>
<path d="M365.115 200.999L195.202 183.631L424.003 40.6735L365.115 200.999Z" fill="#3DAD05"/>
<path d="M329.593 391.275L266.901 381.918L356.425 333.849L329.593 391.275Z" fill="#3DAD05"/>
<path d="M140.929 497.349L55.254 488.591L170.621 416.509L140.929 497.349Z" fill="#3DAD05"/>
<path d="M472.607 119.617L558.282 128.374L442.915 200.457L472.607 119.617Z" fill="#00AAFF"/>
<path d="M130.346 448.365L172.139 415.835L88.4825 415.925L130.346 448.365Z" fill="#3DAD05"/>
<path d="M483.19 168.601L441.396 201.131L525.053 201.041L483.19 168.601Z" fill="#00AAFF"/>
<rect y="119" width="82" height="379" fill="#3DAD05"/>
<rect x="531" y="119" width="82" height="379" fill="#00AAFF"/>
<rect x="0.478271" y="201.003" width="82" height="317.12" transform="rotate(-89.9982 0.478271 201.003)" fill="#FF0000"/>
<rect x="0.478271" y="201.003" width="82" height="317.12" transform="rotate(-89.9982 0.478271 201.003)" fill="#FF0000"/>
<rect x="0.478271" y="201.003" width="82" height="365" transform="rotate(-89.9982 0.478271 201.003)" fill="#3DAD05"/>
<rect x="248" y="498" width="82" height="365" transform="rotate(-89.9982 248 498)" fill="#00AAFF"/>
<rect y="498" width="82" height="140.907" transform="rotate(-89.9982 0 498)" fill="#3DAD05"/>
<rect x="612.997" y="118.966" width="82" height="140.91" transform="rotate(90.0018 612.997 118.966)" fill="#00AAFF"/>
<rect x="233" y="234.002" width="49.9984" height="49.9989" transform="rotate(90.0018 233 234.002)" fill="#00AAFF"/>
<rect x="428" y="234.002" width="49.9984" height="49.9989" transform="rotate(90.0018 428 234.002)" fill="#00AAFF"/>
</svg>
